PathFileType	4	(X/Y/Z)	c:/Users/goper/Files/vsCode/490R/osim_files/C07/C07_Slow_04.trc
DataRate	CameraRate	NumFrames	NumMarkers	Units                	OrigDataRate	OrigDataStartFrame	OrigNumFrames
250.00	250.00	11	36	mm	250.0	2517	4026
                Frame#	Time	LPSIS			LASIS			LTH1			LTH2			LTH3			LTH4			LLFE			LMFE			LSH1			LSH2			LSH3			LSH4			LLMAL			LMMAL			LCAL			LMTP5			LTOE			LMTP1			RPSIS			RASIS			RTH1			RTH2			RTH3			RTH4			RLFE			RMFE			RSH1			RSH2			RSH3			RSH4			RLMAL			RMMAL			RCAL			RMTP1			RTOE			RMTP5		
		X1	Y1	Z1	X2	Y2	Z2	X3	Y3	Z3	X4	Y4	Z4	X5	Y5	Z5	X6	Y6	Z6	X7	Y7	Z7	X8	Y8	Z8	X9	Y9	Z9	X10	Y10	Z10	X11	Y11	Z11	X12	Y12	Z12	X13	Y13	Z13	X14	Y14	Z14	X15	Y15	Z15	X16	Y16	Z16	X17	Y17	Z17	X18	Y18	Z18	X19	Y19	Z19	X20	Y20	Z20	X21	Y21	Z21	X22	Y22	Z22	X23	Y23	Z23	X24	Y24	Z24	X25	Y25	Z25	X26	Y26	Z26	X27	Y27	Z27	X28	Y28	Z28	X29	Y29	Z29	X30	Y30	Z30	X31	Y31	Z31	X32	Y32	Z32	X33	Y33	Z33	X34	Y34	Z34	X35	Y35	Z35	X36	Y36	Z36

2517	10.06400	0.00000	0.00000	0.00000	1005.94769	985.22125	407.37488	0.00000	0.00000	0.00000	0.00000	0.00000	0.00000	962.11597	644.47998	456.50290	0.00000	0.00000	0.00000	936.30200	525.79034	429.99216	932.72003	508.82669	307.90948	897.45056	340.59674	445.92834	0.00000	0.00000	0.00000	862.66040	359.91632	433.28479	988.36896	355.72949	437.38098	825.87885	122.76103	395.30328	809.53076	153.66562	323.50613	860.30609	46.30519	347.21866	680.45282	85.52471	414.75217	635.49835	121.16111	360.25708	661.09314	101.12724	308.22098	1161.67041	1013.01105	224.81227	0.00000	0.00000	0.00000	1070.42468	825.27130	100.07738	1085.70935	747.56317	104.05936	1103.90027	668.40594	117.03706	1018.67554	737.17975	141.63007	1167.33289	502.06537	161.94647	1166.26306	515.50677	271.69141	0.00000	0.00000	0.00000	1257.76526	281.31915	162.49507	0.00000	0.00000	0.00000	0.00000	0.00000	0.00000	1320.82153	121.28107	218.64337	1288.25256	130.55589	293.84262	0.00000	0.00000	0.00000	1166.81836	48.10057	295.78619	1142.80383	56.53936	247.96660	1191.12903	46.01255	186.49300
2518	10.06800	0.00000	0.00000	0.00000	1001.27173	984.63794	407.37097	0.00000	0.00000	0.00000	0.00000	0.00000	0.00000	958.72363	642.20807	456.50195	0.00000	0.00000	0.00000	933.43481	525.03735	429.98987	929.98810	508.06042	307.79138	893.29694	340.01819	445.64423	0.00000	0.00000	0.00000	858.62689	359.61407	433.10892	987.49744	355.49167	437.35913	818.77344	123.53671	395.73416	803.95551	153.76901	323.26974	853.52850	45.89045	347.15201	673.69733	86.70641	413.57465	629.46521	122.91878	359.00101	655.21179	102.81387	307.07111	1157.68445	1012.51801	224.96902	0.00000	0.00000	0.00000	1066.94812	824.98682	99.95293	1082.31750	747.25598	104.04305	1100.73560	668.19751	116.95493	1015.29144	736.71539	141.51619	1164.61108	501.99719	161.95265	1163.27905	515.49725	271.69000	0.00000	0.00000	0.00000	1255.05750	280.60547	163.42203	0.00000	0.00000	0.00000	0.00000	0.00000	0.00000	1320.41223	122.00269	218.48683	1287.67224	131.12927	293.86426	0.00000	0.00000	0.00000	1166.82996	48.19072	295.76071	1143.35510	56.77543	248.26231	1191.15271	45.97897	186.43350
2519	10.07200	0.00000	0.00000	0.00000	997.03973	984.29987	407.46210	0.00000	0.00000	0.00000	0.00000	0.00000	0.00000	956.04871	641.46387	456.54224	0.00000	0.00000	0.00000	930.81482	524.09064	429.90961	927.19818	507.16751	307.69571	0.00000	0.00000	0.00000	0.00000	0.00000	0.00000	854.59985	359.38876	432.88983	986.62103	355.25436	437.33713	0.00000	0.00000	0.00000	798.53204	153.69463	323.00296	847.13666	45.37946	346.76529	667.30231	87.98186	412.74350	623.59821	124.49889	357.74252	649.46997	104.08536	306.08762	1153.65906	1012.10419	225.15999	0.00000	0.00000	0.00000	1063.32898	824.61340	99.93839	1078.94153	746.98907	103.98736	1097.47266	667.97827	116.91432	1011.79602	736.27643	141.45865	1161.72498	501.89407	161.97041	1160.19128	515.44391	271.76721	0.00000	0.00000	0.00000	1254.64319	281.94476	162.58372	0.00000	0.00000	0.00000	0.00000	0.00000	0.00000	0.00000	0.00000	0.00000	1286.52820	132.10149	293.77881	1374.18774	84.35700	257.28201	1167.31433	47.88099	295.67834	1143.29675	56.74528	248.26958	1191.12866	45.89751	186.42957
2520	10.07600	1160.25183	1004.46912	324.88303	992.51019	983.93695	407.63589	0.00000	0.00000	0.00000	0.00000	0.00000	0.00000	953.27667	640.72870	456.54092	0.00000	0.00000	0.00000	927.85254	523.20813	429.78149	924.07971	506.25064	307.80402	0.00000	0.00000	0.00000	0.00000	0.00000	0.00000	850.64648	359.02432	432.58267	985.73956	355.01761	437.31503	807.43115	123.01691	394.96402	793.22968	153.64703	322.57993	840.98773	44.97331	346.18890	661.20630	89.01302	411.66718	618.13342	125.78223	356.65625	644.00531	105.11166	305.09998	1149.51257	1011.59943	225.45169	0.00000	0.00000	0.00000	1059.68774	824.31805	99.91607	1075.43677	746.68616	104.04607	1094.15613	667.79865	116.93127	1008.36047	735.89960	141.33481	1158.64600	501.68948	162.08260	1156.85632	515.39392	271.71667	0.00000	0.00000	0.00000	1252.97974	282.30191	162.59720	0.00000	0.00000	0.00000	0.00000	0.00000	0.00000	0.00000	0.00000	0.00000	1285.83557	132.71593	293.62552	1373.96021	85.10513	257.44806	1167.18005	47.87054	295.73264	1143.13501	56.78154	248.25815	1191.05664	45.87995	186.35292
2521	10.08000	0.00000	0.00000	0.00000	987.90131	983.50500	407.52460	0.00000	0.00000	0.00000	0.00000	0.00000	0.00000	950.44373	640.00916	456.48538	0.00000	0.00000	0.00000	925.07617	522.47852	429.63385	921.26074	505.67606	307.60501	880.96228	338.37900	444.76453	0.00000	0.00000	0.00000	846.75085	358.56592	432.28430	984.85278	354.78140	437.29282	802.81622	122.47398	393.76010	788.12842	153.49536	322.06650	835.08325	44.63538	345.66690	655.57349	90.05324	411.01419	612.87189	126.93053	355.67178	638.72711	106.15830	304.13727	1145.48718	1011.22363	225.65569	0.00000	0.00000	0.00000	1056.10522	824.09637	99.86679	1071.91309	746.46985	104.06029	1090.79944	667.57788	116.93978	1004.77917	735.47095	141.32513	1155.69385	501.68967	162.06732	1153.50574	515.36414	271.76196	0.00000	0.00000	0.00000	1251.36865	282.68787	162.61226	0.00000	0.00000	0.00000	0.00000	0.00000	0.00000	1318.89514	124.25530	217.74908	1285.65271	132.98714	293.48315	0.00000	0.00000	0.00000	1167.04321	47.88898	295.63672	1142.98181	56.79673	248.23051	1191.05029	45.82656	186.29016
2522	10.08400	1151.70789	1003.66272	325.46948	984.09869	982.87384	407.67169	0.00000	0.00000	0.00000	0.00000	0.00000	0.00000	947.50732	639.28076	456.51477	0.00000	0.00000	0.00000	922.24036	521.76556	429.60757	918.00934	505.04208	307.54471	877.13568	337.74283	444.38336	0.00000	0.00000	0.00000	843.08490	358.04480	432.04324	983.96033	354.54584	437.27048	797.68616	122.27217	393.50168	783.27814	153.43794	321.46545	829.66919	44.10415	344.50632	650.18170	90.65816	409.98254	607.97272	127.94135	354.83902	633.67474	106.94085	303.34448	1141.23364	1010.70331	226.00946	0.00000	0.00000	0.00000	1052.43127	823.87274	99.86917	1068.32812	746.23975	104.13879	1087.33777	667.40094	116.99754	1001.20361	735.21289	141.20822	1152.60327	501.54333	162.14169	1150.13538	515.30914	271.65845	0.00000	0.00000	0.00000	1249.62500	283.10226	162.57234	0.00000	0.00000	0.00000	0.00000	0.00000	0.00000	1318.42102	125.01575	217.76759	1284.18152	134.17941	293.16739	1373.14734	76.92397	264.73199	1166.20105	48.57513	295.52216	1142.91174	56.83475	248.21935	1191.01855	45.80897	186.24477
2523	10.08800	0.00000	0.00000	0.00000	979.19275	982.72839	407.54501	0.00000	0.00000	0.00000	0.00000	0.00000	0.00000	944.69476	638.55865	456.48782	0.00000	0.00000	0.00000	919.84406	520.53967	429.76932	914.54108	504.40634	307.46445	873.62909	336.96216	444.02496	0.00000	0.00000	0.00000	839.61749	357.43869	431.80728	983.06219	354.31085	437.24805	793.49579	121.71267	392.05594	778.73395	153.23027	320.93735	824.65326	43.63101	343.52655	645.57928	90.98431	409.28647	603.38184	128.67378	354.30377	628.94360	107.75253	302.60034	1137.20874	1010.33221	226.21701	0.00000	0.00000	0.00000	1048.69568	823.65723	99.91498	1064.72693	746.06799	104.20549	1083.79333	667.21838	117.11988	997.49493	734.87079	141.21727	1149.42615	501.53308	162.15959	1146.71741	515.24475	271.73047	0.00000	0.00000	0.00000	0.00000	0.00000	0.00000	0.00000	0.00000	0.00000	1247.89795	283.61603	162.51172	0.00000	0.00000	0.00000	1284.30103	134.52101	293.20490	0.00000	0.00000	0.00000	1166.15515	48.69961	295.43585	1142.94751	56.81749	248.21358	1190.94421	45.81186	186.17841
2524	10.09200	1143.06384	1003.01410	326.02975	975.05127	982.36029	407.50073	0.00000	0.00000	0.00000	0.00000	0.00000	0.00000	941.72064	637.83228	456.59659	0.00000	0.00000	0.00000	916.61499	520.16614	429.43915	910.97687	503.81329	307.37802	870.45081	335.96454	443.64310	0.00000	0.00000	0.00000	836.29120	356.70633	431.51752	982.15808	354.07648	437.22546	789.44135	120.89393	390.91055	774.31915	152.94696	320.26620	819.83875	42.83231	342.06049	641.28009	90.98056	408.72849	599.22760	129.22626	354.00241	624.50500	108.21369	302.30078	1132.90112	1009.83435	226.59628	0.00000	0.00000	0.00000	1044.82678	823.34613	100.08301	1061.13586	745.93097	104.27403	1080.17310	667.03033	117.27245	993.78143	734.54370	141.10786	1146.07617	501.40338	162.23326	0.00000	0.00000	0.00000	0.00000	0.00000	0.00000	1246.08582	284.11398	162.48914	1200.19470	327.79333	159.63217	0.00000	0.00000	0.00000	0.00000	0.00000	0.00000	1283.39075	135.37486	292.99774	0.00000	0.00000	0.00000	1166.16638	48.71915	295.37387	1142.05579	56.34132	247.64874	1190.72449	45.69584	186.20703
2525	10.09600	0.00000	0.00000	0.00000	970.56873	981.77594	407.75970	0.00000	0.00000	0.00000	0.00000	0.00000	0.00000	938.73572	637.01501	456.54062	0.00000	0.00000	0.00000	913.44897	519.34888	429.36514	907.09497	503.35785	307.21967	867.43579	334.87320	443.10370	0.00000	0.00000	0.00000	833.19019	355.73932	431.30475	981.24774	353.84280	437.20273	785.75067	120.02213	390.07834	770.14032	152.56216	319.55865	815.45825	42.00150	340.56458	637.62396	90.40556	408.27689	595.31409	129.44838	354.11069	620.28149	108.79321	302.01334	1128.80579	1009.48926	226.77359	0.00000	0.00000	0.00000	1040.99121	823.13873	100.16425	1057.36780	745.71649	104.40275	1076.49255	666.84167	117.42729	989.98730	734.26166	141.06509	1142.68567	501.31339	162.26357	1139.87573	514.80188	271.80334	0.00000	0.00000	0.00000	1243.35535	288.65836	159.45848	1198.00208	328.00320	159.66440	1211.96179	286.00250	166.08308	0.00000	0.00000	0.00000	1282.40979	136.24962	292.51047	0.00000	0.00000	0.00000	1166.18140	48.67433	295.29498	1143.13196	56.61453	248.26721	1190.75891	45.84927	186.15276
2526	10.10000	1134.29126	1002.38995	326.57028	966.16345	981.31128	407.68484	0.00000	0.00000	0.00000	0.00000	0.00000	0.00000	936.20294	636.81934	457.01151	0.00000	0.00000	0.00000	910.18939	518.57452	429.18094	902.95416	503.01007	307.05780	0.00000	0.00000	0.00000	0.00000	0.00000	0.00000	830.12164	354.62823	431.24469	980.33093	353.60980	437.17990	782.32568	118.81979	389.04425	766.28430	152.18471	318.95984	811.42633	41.09130	339.11795	634.11499	89.47372	407.87683	591.79657	129.35219	354.54248	616.38635	109.25208	302.02039	1124.44788	1008.98260	227.12907	0.00000	0.00000	0.00000	1037.14685	822.95758	100.17260	1053.56592	745.50751	104.52197	1072.74402	666.64429	117.58819	986.11163	733.94061	141.07242	1139.20020	501.15628	162.29994	1136.25549	514.42084	271.79272	0.00000	0.00000	0.00000	1241.21704	289.17490	159.49396	1195.79724	328.27420	159.59999	1210.01465	286.33325	166.08946	0.00000	0.00000	0.00000	1282.10767	136.77750	292.45831	1371.96375	90.33909	257.78223	1166.11609	48.63328	295.30365	1143.23096	56.32521	248.35840	1190.72961	45.89067	186.06032
2527	10.10400	0.00000	0.00000	0.00000	961.70087	980.98492	407.80203	0.00000	0.00000	0.00000	0.00000	0.00000	0.00000	932.71967	635.97284	457.16434	0.00000	0.00000	0.00000	906.72235	517.77393	429.07443	898.71234	502.74231	306.86203	0.00000	0.00000	0.00000	0.00000	0.00000	0.00000	827.22284	353.36230	431.24625	979.40753	353.37747	437.15689	779.19177	117.63343	388.32068	762.70093	151.72020	318.20233	807.80206	40.09023	337.30795	631.06079	88.15451	407.63602	588.50745	128.93513	355.18961	612.74323	109.60973	302.22311	1120.23865	1008.57562	227.38843	0.00000	0.00000	0.00000	1033.24512	822.74652	100.25385	1049.67786	745.25543	104.71381	1068.92651	666.45380	117.74114	982.23212	733.68445	141.00755	1135.69910	501.09821	162.27002	1132.46741	514.14417	271.96280	0.00000	0.00000	0.00000	1239.35461	289.81314	159.23532	1193.44861	328.44012	159.64534	1208.07104	286.63046	166.01358	0.00000	0.00000	0.00000	1281.26099	137.79781	292.18845	1371.50134	91.46071	258.03040	1166.23267	48.39601	295.27103	1143.15137	56.34836	248.36266	1190.63794	45.89758	186.07178
